<svg xmlns="http://www.w3.org/2000/svg" width="79" height="46" viewBox="0 0 79 46">
  <path fill-rule="evenodd" d="M45.0843704,6.31592011 C46.4679791,4.36129833 47.9998086,2.87339228 49.6799048,1.8521573 C51.3600011,0.830922328 53.1334094,0.3203125 55.000183,0.3203125 C56.3398676,0.3203125 57.5532523,0.583853056 58.6403734,1.11094208 C59.7274945,1.63803109 60.5840013,2.37374848 61.2099195,3.31811631 C61.8358377,4.26248413 62.1487921,5.32762721 62.1487921,6.51357751 C62.1487921,8.22661682 61.544845,9.6211856 60.3369327,10.6973257 L59.7769034,10.3020109 C60.4577267,9.33568102 60.7981332,8.30348051 60.7981332,7.20537839 C60.7981332,5.62411133 60.2436,4.3173894 59.1345168,3.28517341 C58.0254337,2.25295741 56.6253745,1.73685716 54.9342972,1.73685716 C51.9474594,1.73685716 49.1583219,3.53771762 46.5668009,7.13949259 C48.8069292,8.52310126 50.816426,9.95061261 52.5953514,11.4220695 C54.3742768,12.8935263 56.004934,14.4912409 57.4873719,16.2152613 C58.9698098,17.9392816 60.2490795,19.7236708 61.3252196,21.5684823 C63.1700312,24.7310165 64.7622554,27.3334794 66.10194,29.3759494 C67.4416246,31.4184193 68.6001049,33.0051531 69.5774158,34.1361983 C70.5547267,35.2672435 71.4935899,36.184145 72.3940337,36.8869304 C73.3164395,37.5897157 74.1619654,38.1113064 74.9306369,38.4517181 C75.6993084,38.7921297 76.7644515,39.1270458 78.1260981,39.4564765 L78.1260981,40.3129919 C75.6663493,39.9835612 73.4152738,39.2313725 71.3728038,38.0564033 C69.3303339,36.881434 67.2769137,35.1190065 65.2124817,32.769068 C63.1480497,30.4191294 60.9299167,27.3664513 58.5580161,23.6109421 C56.6473184,20.6021423 55.4504051,18.7299062 54.9672401,17.9941778 C54.4840752,17.2584494 54.0448409,16.6709736 53.6495242,16.2317327 C51.475282,13.4425533 48.795953,10.9059755 45.6114568,8.62192304 C44.8647474,10.0055317 44.3925705,11.3561771 44.1949122,12.6738996 C47.0060536,14.5187112 49.6304783,16.9344996 52.068265,19.9213374 C54.5060517,22.9081752 56.9438019,26.6965707 59.3815886,31.2866375 L58.6239019,31.7478381 C57.8991545,30.4740397 56.9602913,28.9806432 55.807284,27.2676039 C54.6542768,25.5545645 53.4628539,23.9074361 52.2329795,22.326169 C50.7615227,20.4593954 49.3724443,18.9056042 48.0657028,17.6647488 C46.7589613,16.4238934 45.358902,15.342279 43.8654832,14.4198733 C43.8215591,14.81519 43.7995974,15.2214817 43.7995974,15.6387605 C43.7995974,17.3078758 44.0301954,19.0263798 44.4913982,20.7943242 C44.9526011,22.5622686 45.6224334,24.3246961 46.5009151,26.0816595 C47.3793968,27.8386229 48.4061069,29.4912418 49.5810761,31.0395658 C50.7560454,32.5878898 52.046296,33.9769681 53.4518668,35.2068425 C56.1312359,37.4908949 59.0631246,39.2313607 62.2476208,40.428292 C65.4321169,41.6252233 68.6604888,42.22368 71.9328331,42.22368 C73.1627075,42.22368 74.6451231,42.0919097 76.3801245,41.8283652 L76.4460102,42.7507664 C74.3376542,43.1241211 72.5367937,43.3107957 71.0433748,43.3107957 C66.0579912,43.3107957 61.3691654,42.0315259 56.976757,39.4729479 C52.5843485,36.91437 49.0649839,33.504814 46.4185578,29.2441778 C43.7721317,24.9835416 42.4489385,20.4704095 42.4489385,15.7046463 C42.4489385,14.8920508 42.4709002,14.1892759 42.5148243,13.5963008 C40.6919748,12.5421227 38.9405282,11.7734628 37.2604319,11.2902979 C35.5803357,10.8071329 33.8398699,10.5655541 32.0389824,10.5655541 C29.2717651,10.5655541 26.7022447,11.1695012 24.3303441,12.3774135 C21.9584435,13.5853259 20.0752266,15.2214735 18.6806369,17.2859055 C17.2860472,19.3503375 16.5887628,21.5904322 16.5887628,24.0062569 C16.5887628,26.4879677 17.3629132,28.645706 18.9112372,30.4795365 C20.4595612,32.3133671 22.4745484,33.4828283 24.9562592,33.9879553 L24.9562592,34.712699 C23.0235994,34.4930786 21.2941145,33.8671698 19.7677526,32.8349538 C18.2413906,31.8027378 17.0609485,30.4411116 16.2263909,28.7500343 C15.3918333,27.058957 14.9745608,25.225154 14.9745608,23.2485702 C14.9745608,20.6131251 15.6992973,18.1863558 17.1487921,15.9681895 C18.5982869,13.7500232 20.5528794,11.9821053 23.0126281,10.6643828 C25.4723769,9.34666023 28.1297441,8.68780884 30.9848097,8.68780884 C34.762281,8.68780884 38.7153893,9.74197107 42.8442533,11.8503271 C43.1077978,10.3349462 43.5580129,8.98430086 44.1949122,7.79835057 C38.4628191,4.56993033 32.6429651,2.95574442 26.7351757,2.95574442 C22.232957,2.95574442 18.1151358,3.87264594 14.3815886,5.70647648 C10.6480414,7.54030703 7.71066224,10.0439423 5.5693631,13.2174574 C3.42806396,16.3909726 2.35743045,19.8773945 2.35743045,23.6768279 C2.35743045,27.4103751 3.26884154,30.8309119 5.09169107,33.9385409 C6.91454059,37.0461699 9.41268545,39.4839201 12.5862006,41.2518645 C15.7597157,43.0198089 19.2790802,43.9037678 23.1443997,43.9037678 C26.3508579,43.9037678 29.2552945,43.3382537 31.8577965,42.2072085 C34.4602985,41.0761634 36.491757,39.5004105 37.9522328,37.4799025 C39.4127086,35.4593946 40.1429356,33.1753765 40.1429356,30.6277796 C40.1429356,28.0582206 39.4017278,25.7906737 37.9192899,23.8250709 C36.436852,21.8594681 34.4767691,20.5472558 32.0389824,19.8883945 L32.0389824,19.064822 C33.883794,19.4601388 35.5199416,20.2178179 36.9474744,21.337882 C38.3750071,22.4579462 39.4895641,23.8360437 40.2911786,25.4722159 C41.0927932,27.108388 41.4935944,28.8488538 41.4935944,30.6936654 C41.4935944,33.4608827 40.6974823,35.964518 39.1052343,38.2046463 C37.5129862,40.4447747 35.2893627,42.1907308 32.4342972,43.4425673 C29.5792317,44.6944037 26.3947833,45.3203125 22.8808565,45.3203125 C20.047753,45.3203125 17.4892135,44.9140208 15.2051611,44.1014252 C12.9211086,43.2888297 10.7359182,42.0260312 8.64952416,40.3129919 C7.00237097,38.9513452 5.59133091,37.4140253 4.41636164,35.700986 C3.24139237,33.9879467 2.35743342,32.1376724 1.76445827,30.1501075 C1.17148313,28.1625427 0.875,26.1146129 0.875,24.0062569 C0.875,19.8554308 2.02798993,16.0725258 4.33400439,12.6574282 C6.64001885,9.24233056 9.80799596,6.54653029 13.8380307,4.56994647 C17.8680655,2.59336265 22.2988411,1.60508556 27.1304905,1.60508556 C29.1509984,1.60508556 31.1989281,1.78626969 33.2743411,2.14864339 C35.3497542,2.51101709 37.3921935,3.03809821 39.4017204,3.72990254 C41.4112472,4.42170688 43.305445,5.28370412 45.0843704,6.31592011 Z"/>
</svg>
