<svg xmlns="http://www.w3.org/2000/svg" width="78" height="45" viewBox="0 0 78 45">
  <path fill-rule="evenodd" d="M44.2093704,5.99560761 C45.5929791,4.04098583 47.1248086,2.55307978 48.8049048,1.5318448 C50.4850011,0.510609828 52.2584094,0 54.125183,0 C55.4648676,0 56.6782523,0.263540556 57.7653734,0.790629575 C58.8524945,1.31771859 59.7090013,2.05343598 60.3349195,2.99780381 C60.9608377,3.94217163 61.2737921,5.00731471 61.2737921,6.19326501 C61.2737921,7.90630432 60.669845,9.3008731 59.4619327,10.3770132 L58.9019034,9.98169839 C59.5827267,9.01536852 59.9231332,7.98316801 59.9231332,6.88506589 C59.9231332,5.30379883 59.3686,3.9970769 58.2595168,2.96486091 C57.1504337,1.93264491 55.7503745,1.41654466 54.0592972,1.41654466 C51.0724594,1.41654466 48.2833219,3.21740512 45.6918009,6.81918009 C47.9319292,8.20278876 49.941426,9.63030011 51.7203514,11.101757 C53.4992768,12.5732138 55.129934,14.1709284 56.6123719,15.8949488 C58.0948098,17.6189691 59.3740795,19.4033583 60.4502196,21.2481698 C62.2950312,24.410704 63.8872554,27.0131669 65.22694,29.0556369 C66.5666246,31.0981068 67.7251049,32.6848406 68.7024158,33.8158858 C69.6797267,34.946931 70.6185899,35.8638325 71.5190337,36.5666179 C72.4414395,37.2694032 73.2869654,37.7909939 74.0556369,38.1314056 C74.8243084,38.4718172 75.8894515,38.8067333 77.2510981,39.136164 L77.2510981,39.9926794 C74.7913493,39.6632487 72.5402738,38.91106 70.4978038,37.7360908 C68.4553339,36.5611215 66.4019137,34.798694 64.3374817,32.4487555 C62.2730497,30.0988169 60.0549167,27.0461388 57.6830161,23.2906296 C55.7723184,20.2818298 54.5754051,18.4095937 54.0922401,17.6738653 C53.6090752,16.9381369 53.1698409,16.3506611 52.7745242,15.9114202 C50.600282,13.1222408 47.920953,10.585663 44.7364568,8.30161054 C43.9897474,9.68521922 43.5175705,11.0358646 43.3199122,12.3535871 C46.1310536,14.1983987 48.7554783,16.6141871 51.193265,19.6010249 C53.6310517,22.5878627 56.0688019,26.3762582 58.5065886,30.966325 L57.7489019,31.4275256 C57.0241545,30.1537272 56.0852913,28.6603307 54.932284,26.9472914 C53.7792768,25.234252 52.5878539,23.5871236 51.3579795,22.0058565 C49.8865227,20.1390829 48.4974443,18.5852917 47.1907028,17.3444363 C45.8839613,16.1035809 44.483902,15.0219665 42.9904832,14.0995608 C42.9465591,14.4948775 42.9245974,14.9011692 42.9245974,15.318448 C42.9245974,16.9875633 43.1551954,18.7060673 43.6163982,20.4740117 C44.0776011,22.2419561 44.7474334,24.0043836 45.6259151,25.761347 C46.5043968,27.5183104 47.5311069,29.1709293 48.7060761,30.7192533 C49.8810454,32.2675773 51.171296,33.6566556 52.5768668,34.88653 C55.2562359,37.1705824 58.1881246,38.9110482 61.3726208,40.1079795 C64.5571169,41.3049108 67.7854888,41.9033675 71.0578331,41.9033675 C72.2877075,41.9033675 73.7701231,41.7715972 75.5051245,41.5080527 L75.5710102,42.4304539 C73.4626542,42.8038086 71.6617937,42.9904832 70.1683748,42.9904832 C65.1829912,42.9904832 60.4941654,41.7112134 56.101757,39.1526354 C51.7093485,36.5940575 48.1899839,33.1845015 45.5435578,28.9238653 C42.8971317,24.6632291 41.5739385,20.150097 41.5739385,15.3843338 C41.5739385,14.5717383 41.5959002,13.8689634 41.6398243,13.2759883 C39.8169748,12.2218102 38.0655282,11.4531503 36.3854319,10.9699854 C34.7053357,10.4868204 32.9648699,10.2452416 31.1639824,10.2452416 C28.3967651,10.2452416 25.8272447,10.8491887 23.4553441,12.057101 C21.0834435,13.2650134 19.2002266,14.901161 17.8056369,16.965593 C16.4110472,19.030025 15.7137628,21.2701197 15.7137628,23.6859444 C15.7137628,26.1676552 16.4879132,28.3253935 18.0362372,30.159224 C19.5845612,31.9930546 21.5995484,33.1625158 24.0812592,33.6676428 L24.0812592,34.3923865 C22.1485994,34.1727661 20.4191145,33.5468573 18.8927526,32.5146413 C17.3663906,31.4824253 16.1859485,30.1207991 15.3513909,28.4297218 C14.5168333,26.7386445 14.0995608,24.9048415 14.0995608,22.9282577 C14.0995608,20.2928126 14.8242973,17.8660433 16.2737921,15.647877 C17.7232869,13.4297107 19.6778794,11.6617928 22.1376281,10.3440703 C24.5973769,9.02634773 27.2547441,8.36749634 30.1098097,8.36749634 C33.887281,8.36749634 37.8403893,9.42165857 41.9692533,11.5300146 C42.2327978,10.0146337 42.6830129,8.66398836 43.3199122,7.47803807 C37.5878191,4.24961783 31.7679651,2.63543192 25.8601757,2.63543192 C21.357957,2.63543192 17.2401358,3.55233344 13.5065886,5.38616398 C9.77304136,7.21999453 6.83566224,9.72362981 4.6943631,12.8971449 C2.55306396,16.0706601 1.48243045,19.557082 1.48243045,23.3565154 C1.48243045,27.0900626 2.39384154,30.5105994 4.21669107,33.6182284 C6.03954059,36.7258574 8.53768545,39.1636076 11.7112006,40.931552 C14.8847157,42.6994964 18.4040802,43.5834553 22.2693997,43.5834553 C25.4758579,43.5834553 28.3802945,43.0179412 30.9827965,41.886896 C33.5852985,40.7558509 35.616757,39.180098 37.0772328,37.15959 C38.5377086,35.1390821 39.2679356,32.855064 39.2679356,30.3074671 C39.2679356,27.7379081 38.5267278,25.4703612 37.0442899,23.5047584 C35.561852,21.5391556 33.6017691,20.2269433 31.1639824,19.568082 L31.1639824,18.7445095 C33.008794,19.1398263 34.6449416,19.8975054 36.0724744,21.0175695 C37.5000071,22.1376337 38.6145641,23.5157312 39.4161786,25.1519034 C40.2177932,26.7880755 40.6185944,28.5285413 40.6185944,30.3733529 C40.6185944,33.1405702 39.8224823,35.6442055 38.2302343,37.8843338 C36.6379862,40.1244622 34.4143627,41.8704183 31.5592972,43.1222548 C28.7042317,44.3740912 25.5197833,45 22.0058565,45 C19.172753,45 16.6142135,44.5937083 14.3301611,43.7811127 C12.0461086,42.9685172 9.86091819,41.7057187 7.77452416,39.9926794 C6.12737097,38.6310327 4.71633091,37.0937128 3.54136164,35.3806735 C2.36639237,33.6676342 1.48243342,31.8173599 0.889458272,29.829795 C0.296483126,27.8422302 0,25.7943004 0,23.6859444 C0,19.5351183 1.15298993,15.7522133 3.45900439,12.3371157 C5.76501885,8.92201806 8.93299596,6.22621779 12.9630307,4.24963397 C16.9930655,2.27305015 21.4238411,1.28477306 26.2554905,1.28477306 C28.2759984,1.28477306 30.3239281,1.46595719 32.3993411,1.82833089 C34.4747542,2.19070459 36.5171935,2.71778571 38.5267204,3.40959004 C40.5362472,4.10139438 42.430445,4.96339162 44.2093704,5.99560761 Z" transform="matrix(-1 0 0 1 77.251 0)"/>
</svg>
